<svg id="svg" version="1.1" xmlns="http://www.w3.org/2000/svg" xmlns:xlink="http://www.w3.org/1999/xlink" width="400" height="402.14621059691484" viewBox="0, 0, 400,402.14621059691484"><g id="svgg"><path id="path0" d="M187.659 11.297 C 88.611 18.097,11.896 100.791,11.977 200.671 C 12.073 320.304,120.680 409.907,237.290 386.558 C 325.623 368.872,388.983 291.180,388.999 200.532 C 389.020 90.855,296.427 3.829,187.659 11.297 M205.593 33.258 C 217.079 33.389,226.535 33.555,226.606 33.626 C 226.779 33.799,228.337 43.785,228.211 43.911 C 228.156 43.966,227.400 43.824,226.530 43.596 C 223.904 42.908,218.100 42.664,204.225 42.660 L 191.013 42.656 191.013 47.715 L 191.013 52.774 203.435 52.971 C 210.267 53.079,216.986 53.079,218.365 52.971 L 220.874 52.775 220.701 53.819 C 220.607 54.393,220.528 56.656,220.526 58.848 C 220.523 62.541,220.489 62.819,220.054 62.634 C 219.621 62.450,191.266 61.897,191.094 62.070 C 191.052 62.112,190.938 64.441,190.840 67.246 L 190.663 72.347 195.978 72.525 C 212.065 73.064,225.579 72.690,228.371 71.629 L 229.671 71.135 229.501 72.254 C 229.407 72.870,228.943 75.305,228.469 77.666 L 227.609 81.958 223.060 82.045 C 220.558 82.093,209.534 82.048,198.562 81.945 L 178.612 81.759 178.790 80.786 C 178.887 80.250,179.146 78.846,179.365 77.666 C 180.375 72.230,180.378 39.542,179.369 34.730 L 179.006 32.998 181.857 33.008 C 183.425 33.014,194.106 33.126,205.593 33.258 M149.688 42.254 C 151.600 48.123,168.611 78.203,171.678 81.137 C 172.131 81.570,172.502 82.058,172.502 82.221 C 172.502 82.515,161.294 88.953,161.113 88.764 C 161.062 88.710,160.570 87.458,160.020 85.983 C 158.842 82.821,153.874 73.035,152.480 71.129 C 152.440 71.075,147.180 73.962,140.791 77.546 C 134.402 81.130,128.511 84.424,127.700 84.868 C 126.888 85.312,126.182 85.706,126.130 85.744 C 125.711 86.053,133.324 98.551,135.424 101.001 C 136.628 102.405,136.742 102.638,136.341 102.857 C 136.088 102.995,133.546 104.416,130.691 106.014 C 124.532 109.463,125.259 109.350,124.503 106.975 C 122.648 101.149,107.249 73.708,102.963 68.592 C 102.098 67.558,101.484 66.625,101.600 66.519 C 101.877 66.264,112.835 60.094,113.011 60.094 C 113.085 60.094,113.219 60.459,113.308 60.905 C 113.798 63.357,120.089 76.199,121.483 77.593 C 121.594 77.704,124.818 76.035,128.649 73.885 C 144.492 64.993,147.563 63.244,147.688 63.041 C 148.035 62.481,140.934 50.747,138.608 48.036 C 137.861 47.165,137.453 46.477,137.598 46.332 C 138.153 45.777,148.769 40.012,148.916 40.186 C 149.004 40.290,149.352 41.221,149.688 42.254 M268.138 49.501 C 278.445 51.055,292.119 59.245,297.359 67.004 L 298.130 68.146 295.362 72.316 C 292.092 77.242,292.322 77.041,291.594 75.596 C 289.004 70.459,282.434 64.818,275.705 61.955 C 253.587 52.543,240.429 74.027,259.531 88.364 C 266.411 93.529,275.839 96.715,282.823 96.237 L 284.899 96.094 283.830 98.014 C 283.242 99.069,282.014 101.283,281.102 102.932 L 279.444 105.932 278.085 105.795 C 265.497 104.530,250.059 95.776,243.784 86.346 C 231.586 68.012,246.024 46.168,268.138 49.501 M324.280 90.660 C 328.295 97.187,328.095 96.684,326.827 97.065 C 322.777 98.278,311.260 105.196,311.817 106.080 C 312.011 106.388,313.552 108.863,315.240 111.580 C 320.865 120.630,324.999 123.737,330.287 122.885 C 333.452 122.375,337.421 119.477,338.877 116.611 L 339.523 115.340 342.712 120.484 L 345.902 125.628 345.274 126.812 C 344.482 128.304,342.262 130.345,339.949 131.708 C 331.991 136.396,324.964 133.493,317.716 122.524 C 315.579 119.290,313.762 117.502,315.647 120.488 C 319.366 126.379,319.330 130.747,315.495 138.802 C 312.473 145.152,314.746 150.234,320.608 150.235 L 322.334 150.235 317.103 153.738 C 312.321 156.939,311.786 157.230,310.883 157.119 C 306.550 156.587,302.161 151.296,301.869 146.254 C 301.655 142.559,302.469 140.802,307.201 134.749 C 312.295 128.232,312.949 124.446,309.994 118.579 C 309.061 116.727,305.610 111.929,304.441 110.859 L 303.775 110.249 298.221 113.723 C 292.494 117.305,289.473 119.463,287.872 121.115 C 287.365 121.638,286.823 122.064,286.668 122.062 C 286.441 122.060,281.253 113.943,279.883 111.449 C 279.567 110.873,279.619 110.825,281.049 110.375 C 283.902 109.477,288.586 106.847,300.335 99.545 C 315.274 90.261,319.463 87.374,320.385 85.726 C 320.781 85.018,320.908 85.178,324.280 90.660 M87.636 92.327 L 91.788 95.318 90.227 96.155 C 79.404 101.956,71.557 117.043,74.180 127.007 C 75.933 133.670,82.410 138.081,89.022 137.116 C 99.804 135.542,110.798 119.935,110.798 106.202 C 110.798 104.746,110.868 103.555,110.954 103.555 C 111.336 103.555,120.260 109.065,120.379 109.374 C 120.955 110.875,118.103 119.991,115.318 125.553 C 105.629 144.900,90.510 152.646,76.302 145.542 C 62.880 138.831,59.450 124.017,67.525 107.643 C 70.836 100.929,76.262 94.294,81.665 90.351 C 83.418 89.071,82.859 88.887,87.636 92.327 M214.487 111.503 C 219.855 111.602,223.746 111.782,223.944 111.939 C 224.185 112.130,224.279 113.315,224.279 116.147 L 224.279 120.088 225.985 123.290 C 226.924 125.051,229.478 129.812,231.662 133.870 C 233.846 137.928,236.338 142.569,237.200 144.184 L 238.766 147.121 238.766 214.239 C 238.766 271.805,238.712 281.401,238.386 281.671 C 237.942 282.040,237.365 282.145,221.328 284.766 C 214.614 285.864,204.680 287.492,199.253 288.384 C 186.470 290.486,188.155 290.609,181.576 287.093 C 178.577 285.491,173.105 282.580,169.416 280.625 C 165.728 278.669,162.563 276.932,162.383 276.763 C 161.976 276.381,162.393 147.160,162.803 146.655 C 162.942 146.484,165.749 140.429,169.041 133.199 L 175.028 120.054 175.193 115.627 C 175.283 113.192,175.379 111.152,175.405 111.093 C 175.457 110.975,199.839 111.231,214.487 111.503 M176.640 112.228 C 176.565 112.424,176.544 113.661,176.594 114.978 L 176.684 117.371 176.739 114.775 C 176.786 112.556,176.862 112.161,177.264 112.056 C 177.704 111.941,177.703 111.932,177.255 111.902 C 176.992 111.885,176.716 112.032,176.640 112.228 M188.934 112.335 C 189.487 112.393,190.392 112.393,190.946 112.335 C 191.499 112.277,191.046 112.230,189.940 112.230 C 188.833 112.230,188.380 112.277,188.934 112.335 M203.018 112.602 C 203.498 112.661,204.282 112.661,204.762 112.602 C 205.241 112.542,204.849 112.494,203.890 112.494 C 202.931 112.494,202.539 112.542,203.018 112.602 M217.371 112.871 C 217.924 112.929,218.830 112.929,219.383 112.871 C 219.936 112.814,219.484 112.766,218.377 112.766 C 217.270 112.766,216.818 112.814,217.371 112.871 M222.775 116.566 C 222.776 118.632,222.818 119.441,222.869 118.365 C 222.920 117.289,222.919 115.599,222.868 114.609 C 222.817 113.620,222.775 114.500,222.775 116.566 M205.433 117.694 C 205.765 117.758,206.308 117.758,206.640 117.694 C 206.972 117.630,206.700 117.578,206.036 117.578 C 205.372 117.578,205.101 117.630,205.433 117.694 M181.422 119.582 C 182.418 119.634,184.048 119.634,185.044 119.582 C 186.040 119.530,185.225 119.488,183.233 119.488 C 181.241 119.488,180.426 119.530,181.422 119.582 M188.799 120.382 C 189.279 120.441,190.064 120.441,190.543 120.382 C 191.023 120.322,190.630 120.274,189.671 120.274 C 188.712 120.274,188.320 120.322,188.799 120.382 M220.858 120.917 C 221.264 120.978,221.928 120.978,222.334 120.917 C 222.740 120.855,222.408 120.805,221.596 120.805 C 220.785 120.805,220.453 120.855,220.858 120.917 M195.099 129.309 C 195.099 129.826,195.154 130.037,195.222 129.779 C 195.289 129.520,195.289 129.098,195.222 128.840 C 195.154 128.581,195.099 128.793,195.099 129.309 M164.689 146.554 C 164.805 146.670,166.459 146.729,168.365 146.687 L 171.831 146.611 168.155 146.478 C 166.133 146.405,164.573 146.439,164.689 146.554 M230.047 146.479 L 223.340 146.627 229.964 146.687 C 234.157 146.725,236.649 146.649,236.754 146.479 C 236.845 146.331,236.882 146.238,236.837 146.271 C 236.791 146.304,233.736 146.397,230.047 146.479 M218.040 148.021 L 237.152 148.092 237.224 164.656 L 237.297 181.221 237.294 164.588 L 237.290 147.954 218.109 147.952 L 198.927 147.949 218.040 148.021 M232.260 181.549 C 232.740 181.608,233.524 181.608,234.004 181.549 C 234.484 181.489,234.091 181.441,233.132 181.441 C 232.173 181.441,231.781 181.489,232.260 181.549 M219.115 181.817 C 219.594 181.877,220.379 181.877,220.858 181.817 C 221.338 181.758,220.946 181.709,219.987 181.709 C 219.027 181.709,218.635 181.758,219.115 181.817 M205.701 182.085 C 206.180 182.145,206.965 182.145,207.445 182.085 C 207.924 182.026,207.532 181.977,206.573 181.977 C 205.614 181.977,205.221 182.026,205.701 182.085 M192.287 182.354 C 192.767 182.413,193.551 182.413,194.031 182.354 C 194.510 182.294,194.118 182.245,193.159 182.245 C 192.200 182.245,191.808 182.294,192.287 182.354 M231.187 182.354 C 231.667 182.413,232.451 182.413,232.931 182.354 C 233.410 182.294,233.018 182.245,232.059 182.245 C 231.100 182.245,230.708 182.294,231.187 182.354 M237.156 216.150 C 237.082 234.919,237.113 250.184,237.224 250.073 C 237.336 249.962,237.396 234.605,237.358 215.948 L 237.290 182.025 237.156 216.150 M217.773 182.622 C 218.253 182.681,219.038 182.681,219.517 182.622 C 219.997 182.562,219.604 182.514,218.645 182.514 C 217.686 182.514,217.294 182.562,217.773 182.622 M204.085 182.890 C 204.561 182.949,205.407 182.950,205.963 182.892 C 206.520 182.834,206.130 182.785,205.097 182.784 C 204.064 182.783,203.609 182.831,204.085 182.890 M190.671 183.158 C 191.148 183.217,191.993 183.218,192.549 183.160 C 193.106 183.102,192.716 183.054,191.683 183.052 C 190.651 183.051,190.195 183.099,190.671 183.158 M163.767 205.902 C 163.767 210.329,163.804 212.177,163.849 210.010 C 163.894 207.843,163.894 204.221,163.849 201.962 C 163.804 199.702,163.768 201.476,163.767 205.902 M186.818 250.168 C 186.819 251.643,186.864 252.213,186.918 251.433 C 186.973 250.653,186.972 249.446,186.917 248.750 C 186.862 248.054,186.818 248.692,186.818 250.168 M163.500 257.143 C 163.499 261.717,163.536 263.626,163.581 261.385 C 163.626 259.144,163.626 255.402,163.581 253.068 C 163.536 250.735,163.500 252.569,163.500 257.143 M125.244 284.756 C 125.473 285.119,127.735 286.277,131.415 287.917 C 162.410 301.730,160.909 300.972,164.772 304.766 C 168.941 308.860,170.287 312.529,169.155 316.711 C 166.779 325.488,156.712 327.946,144.963 322.618 C 141.958 321.255,141.012 321.245,143.727 322.606 C 148.414 324.954,150.727 328.291,152.093 334.675 C 153.598 341.707,158.116 344.252,162.950 340.791 C 163.673 340.274,164.200 340.014,164.122 340.214 C 164.044 340.413,163.045 342.955,161.901 345.862 L 159.822 351.147 158.602 351.563 C 153.689 353.237,145.782 349.669,143.472 344.735 C 142.524 342.711,142.223 341.019,141.925 336.016 C 141.361 326.577,139.063 323.498,129.846 319.833 C 126.196 318.382,123.916 317.577,123.795 317.698 C 122.949 318.544,118.039 331.298,117.647 333.669 C 117.543 334.296,117.350 334.809,117.218 334.809 C 117.034 334.809,105.492 329.788,105.245 329.600 C 105.215 329.578,105.698 328.830,106.318 327.939 C 110.055 322.564,123.520 292.289,124.621 286.787 C 124.779 286.000,124.347 286.453,121.939 289.604 C 118.580 294.000,118.869 293.803,118.118 292.208 C 117.170 290.194,114.681 287.269,105.412 277.279 C 100.628 272.123,96.218 267.359,95.613 266.692 C 94.269 265.212,94.633 265.021,89.660 269.808 L 86.094 273.239 94.824 282.629 C 99.625 287.793,104.271 292.658,105.148 293.439 L 106.742 294.859 103.241 298.134 C 99.032 302.071,99.697 301.891,97.901 299.578 C 96.195 297.380,79.700 279.544,79.375 279.544 C 78.573 279.544,69.038 289.201,67.409 291.663 C 66.496 293.043,66.848 293.280,61.890 287.950 L 57.480 283.210 59.525 281.876 C 63.070 279.562,63.773 278.947,78.480 265.296 C 87.864 256.586,89.482 254.954,91.796 251.864 L 93.137 250.072 109.010 267.129 C 117.740 276.509,125.045 284.442,125.244 284.756 M310.475 251.646 C 313.520 256.380,337.553 279.959,342.384 282.954 L 343.923 283.908 340.996 287.025 C 339.387 288.739,337.290 290.908,336.337 291.845 L 334.604 293.550 333.719 292.248 C 332.024 289.756,329.729 287.164,325.508 282.971 L 321.261 278.753 310.711 289.520 L 300.161 300.288 303.736 303.895 C 307.783 307.979,311.226 310.963,313.435 312.301 C 314.263 312.802,314.913 313.297,314.881 313.401 C 314.785 313.710,306.077 322.736,305.876 322.736 C 305.774 322.736,304.927 321.655,303.994 320.333 C 300.322 315.131,277.921 293.283,272.762 289.872 C 271.909 289.308,271.245 288.755,271.286 288.641 C 271.388 288.364,280.398 279.230,280.472 279.331 C 280.504 279.374,280.933 280.013,281.424 280.751 C 282.991 283.101,284.368 284.666,289.003 289.363 L 293.529 293.951 300.959 286.412 C 305.045 282.266,309.826 277.398,311.582 275.596 L 314.776 272.318 310.559 268.245 C 305.917 263.761,303.741 261.897,301.530 260.509 C 300.726 260.003,300.012 259.548,299.946 259.497 C 299.810 259.393,309.104 250.025,309.320 250.048 C 309.395 250.057,309.915 250.776,310.475 251.646 M236.685 251.007 C 237.120 251.136,237.157 252.142,237.225 265.881 L 237.297 280.617 237.294 265.798 C 237.290 251.178,237.283 250.979,236.754 250.924 C 236.341 250.882,236.325 250.901,236.685 251.007 M186.828 280.617 C 186.828 282.904,186.869 283.840,186.920 282.696 C 186.970 281.553,186.970 279.681,186.920 278.538 C 186.869 277.394,186.828 278.330,186.828 280.617 M270.776 296.918 C 271.762 299.391,272.569 301.488,272.569 301.577 C 272.569 301.666,270.366 301.809,267.673 301.894 C 252.876 302.362,236.570 310.381,239.189 315.901 C 240.572 318.816,243.782 318.847,254.997 316.053 C 271.055 312.052,276.336 311.766,280.798 314.654 C 287.725 319.139,287.888 327.798,281.173 334.571 C 273.733 342.074,257.506 348.142,242.099 349.183 L 239.396 349.366 237.574 344.221 C 235.467 338.274,235.417 338.744,238.121 339.129 C 251.900 341.093,275.445 332.333,274.910 325.441 C 274.594 321.366,270.883 321.056,258.887 324.104 C 241.264 328.582,234.717 328.290,230.287 322.829 C 224.216 315.343,229.345 305.590,242.924 298.795 C 250.148 295.181,260.088 292.526,266.685 292.448 L 268.983 292.421 270.776 296.918 M129.665 304.420 L 127.205 309.964 128.324 310.468 C 147.372 319.056,148.884 319.643,151.979 319.648 C 158.759 319.659,159.905 312.678,153.789 308.619 C 152.362 307.671,133.015 298.850,132.403 298.868 C 132.250 298.872,131.019 301.370,129.665 304.420 M222.970 307.143 C 223.154 307.328,224.558 316.086,224.551 317.009 C 224.547 317.573,224.517 317.578,223.273 317.203 C 220.982 316.512,216.046 316.306,201.677 316.302 L 187.525 316.298 187.525 321.395 L 187.525 326.492 196.177 326.559 C 209.196 326.660,215.196 326.618,216.164 326.418 L 217.036 326.237 217.036 331.218 L 217.036 336.198 214.822 336.046 C 213.605 335.962,206.905 335.818,199.933 335.726 L 187.257 335.558 187.257 340.774 L 187.257 345.991 193.739 346.168 C 211.108 346.642,221.366 346.345,224.532 345.276 C 226.381 344.652,226.307 344.025,225.120 350.249 L 224.100 355.600 199.709 355.498 C 186.294 355.442,175.273 355.356,175.218 355.308 C 175.163 355.260,175.314 354.244,175.555 353.051 C 176.667 347.532,176.929 313.480,175.896 308.786 C 175.653 307.679,175.453 306.747,175.453 306.713 C 175.452 306.565,222.821 306.994,222.970 307.143 " stroke="none" fill="#b4dbe3" fill-rule="evenodd"></path></g></svg>