<?xml version="1.0" standalone="no"?>
<!DOCTYPE svg PUBLIC "-//W3C//DTD SVG 20010904//EN"
 "http://www.w3.org/TR/2001/REC-SVG-20010904/DTD/svg10.dtd">
<svg version="1.0" xmlns="http://www.w3.org/2000/svg"
 width="1491.000000pt" height="1499.000000pt" viewBox="0 0 1491.000000 1499.000000"
 preserveAspectRatio="xMidYMid meet">

<g transform="translate(0.000000,1499.000000) scale(0.100000,-0.100000)"
fill="#000000" stroke="none">
<path d="M6685 13731 c25 -79 35 -260 34 -641 0 -569 -13 -931 -37 -1045 -11
-49 -18 -92 -17 -93 5 -5 1806 -24 1811 -20 2 3 21 93 42 202 33 165 36 196
23 190 -123 -49 -219 -55 -858 -47 l-573 6 0 200 0 199 523 -5 c287 -3 537 -9
555 -12 l32 -7 0 178 0 179 -552 0 -551 0 2 195 c1 107 4 197 6 199 3 2 282
-1 622 -7 510 -8 629 -13 682 -26 35 -9 66 -14 69 -12 2 3 -8 88 -23 189 l-28
184 -621 6 c-342 4 -739 7 -884 7 -254 0 -263 -1 -257 -19z"/>
<path d="M5327 13373 l-207 -117 34 -35 c61 -65 139 -183 253 -381 83 -146
108 -198 100 -206 -7 -6 -109 -65 -227 -131 -118 -67 -335 -188 -482 -271
l-268 -150 -96 170 c-110 194 -162 301 -198 408 -15 43 -31 75 -38 74 -7 -1
-104 -52 -214 -115 l-201 -114 44 -50 c83 -95 163 -224 429 -696 281 -499 347
-626 388 -749 13 -41 28 -74 33 -73 7 1 404 221 412 229 2 1 -19 29 -46 61
-28 32 -73 92 -100 133 -54 82 -243 414 -243 428 0 10 962 552 978 552 11 0
170 -281 231 -410 23 -47 54 -122 69 -167 l28 -82 199 112 c110 62 206 116
213 120 9 6 2 20 -27 53 -79 89 -162 227 -431 704 -296 526 -333 597 -381 731
-17 49 -34 89 -38 89 -3 0 -99 -53 -214 -117z"/>
<path d="M9621 13135 c-184 -40 -316 -112 -438 -237 -114 -117 -204 -284 -239
-440 -21 -94 -21 -262 0 -350 56 -238 217 -470 451 -653 224 -174 569 -330
849 -384 179 -35 156 -48 268 152 l96 172 -136 6 c-146 6 -176 10 -289 40
-268 70 -548 243 -700 432 -122 151 -175 309 -154 455 30 207 179 372 386 428
138 37 364 11 540 -61 261 -107 509 -314 612 -511 l27 -52 108 159 109 159
-44 58 c-138 178 -384 373 -612 482 -131 63 -324 128 -433 146 -109 17 -317
17 -401 -1z"/>
<path d="M11919 11764 c-71 -75 -227 -181 -639 -436 -234 -145 -464 -287 -511
-316 -93 -56 -236 -124 -299 -143 -22 -7 -40 -14 -40 -17 0 -5 22 -42 157
-260 l95 -153 41 38 c78 71 201 159 389 276 103 65 193 120 201 123 19 7 83
-61 161 -169 159 -222 188 -385 101 -562 -19 -38 -82 -131 -140 -205 -168
-216 -207 -319 -171 -457 36 -143 124 -262 229 -312 111 -53 100 -56 314 87
l190 127 -61 1 c-71 1 -106 17 -158 71 -61 64 -81 113 -76 191 3 57 13 87 65
197 77 163 95 224 95 329 -1 99 -32 203 -92 308 -35 61 -39 78 -19 78 4 0 42
-53 84 -117 145 -220 253 -329 395 -397 56 -27 78 -31 162 -34 79 -3 110 0
159 17 123 41 276 157 319 242 l19 36 -116 187 -116 187 -28 -49 c-39 -70
-121 -145 -203 -189 -68 -36 -75 -38 -166 -38 -82 0 -103 4 -150 26 -76 36
-149 96 -213 176 -67 83 -290 440 -282 452 9 15 307 197 396 241 46 24 109 52
140 64 31 11 58 24 60 27 5 7 -243 409 -251 409 -3 0 -22 -16 -41 -36z"/>
<path d="M3024 11601 c-302 -227 -559 -634 -641 -1013 -27 -126 -25 -356 5
-466 44 -165 115 -285 233 -398 78 -74 129 -109 238 -163 127 -64 212 -84 366
-84 185 -1 320 38 482 140 106 66 147 99 242 194 254 254 475 692 528 1046
l10 62 -171 102 c-94 56 -173 103 -176 104 -3 2 -5 -47 -6 -109 -2 -235 -84
-475 -243 -713 -181 -270 -422 -433 -641 -433 -244 0 -459 185 -500 432 -47
278 94 641 352 907 79 81 192 168 261 202 26 13 44 26 42 30 -3 4 -67 51 -142
105 -76 53 -143 101 -149 106 -8 6 -40 -12 -90 -51z"/>
<path d="M6540 10702 l0 -151 -54 -118 c-30 -65 -118 -260 -196 -433 -78 -173
-162 -357 -186 -408 l-44 -94 -6 -2413 -7 -2413 54 -27 c30 -15 239 -126 465
-246 290 -154 421 -219 444 -219 33 0 61 4 915 145 281 46 609 100 729 120
121 20 226 41 233 47 11 8 13 467 13 2511 l0 2500 -194 361 c-107 199 -228
424 -270 501 l-76 140 0 152 c0 92 -4 154 -10 158 -11 7 -575 20 -1357 31
l-453 7 0 -151z m1020 97 c399 -6 731 -12 738 -15 9 -2 12 -39 12 -139 l0
-135 -151 0 c-145 0 -153 1 -217 29 -112 49 -185 64 -290 58 -81 -4 -103 -9
-165 -39 l-72 -35 -405 6 c-223 3 -411 10 -417 14 -9 6 -13 46 -13 144 l0 136
128 -7 c70 -3 453 -11 852 -17z m260 -234 c200 -53 365 -219 378 -381 9 -117
-46 -207 -160 -260 -57 -26 -73 -29 -168 -29 -161 1 -284 51 -397 161 -102
100 -147 236 -113 340 15 43 80 118 124 141 84 44 231 56 336 28z m-577 -62
c143 -6 156 -8 143 -22 -7 -9 -40 -67 -72 -130 -56 -109 -58 -116 -58 -187 1
-128 72 -241 210 -333 179 -120 406 -138 555 -43 55 36 70 56 140 192 52 101
54 107 54 185 0 68 -4 89 -29 140 -17 33 -57 88 -91 123 l-61 62 137 0 c97 0
139 -4 147 -12 16 -20 512 -942 512 -953 0 -3 -407 -5 -904 -5 -714 0 -906 3
-914 13 -9 11 -412 963 -412 973 0 6 471 4 643 -3z m-481 -500 c108 -258 194
-471 191 -475 -5 -9 -823 -11 -823 -2 0 15 424 944 430 944 4 0 95 -210 202
-467z m605 160 c51 -109 197 -224 340 -269 80 -24 199 -29 273 -9 36 9 80 26
98 37 25 15 32 17 32 5 0 -16 -47 -83 -76 -109 -32 -28 -106 -56 -180 -69
-148 -24 -337 42 -455 160 -89 89 -124 162 -124 256 1 55 6 80 25 115 l24 45
8 -53 c4 -29 20 -79 35 -109z m-397 -1327 l0 -643 -52 8 c-227 36 -795 144
-803 153 -7 7 -10 190 -7 569 l4 557 429 0 429 0 0 -644z m1878 16 c2 -493 0
-623 -10 -626 -11 -4 -1671 -37 -1780 -36 l-38 0 0 645 0 645 913 -2 912 -3 3
-623z m-2293 -607 c224 -41 410 -75 412 -75 1 0 3 -585 3 -1300 0 -750 -4
-1300 -9 -1300 -5 0 -199 67 -432 149 l-424 149 -3 1094 c-2 601 0 1153 3
1226 6 115 9 132 24 132 9 0 201 -34 426 -75z m2295 -1315 l0 -1270 -32 -1
c-18 0 -430 -24 -915 -52 l-883 -52 0 1307 0 1308 178 1 c97 1 422 7 722 13
300 7 632 14 738 14 l192 2 0 -1270z m-2415 -1200 c154 -55 336 -119 405 -144
l125 -44 3 -646 c1 -388 -2 -646 -7 -646 -8 0 -176 87 -683 356 l-188 99 0
566 c0 311 3 568 6 572 3 3 18 1 33 -4 14 -6 152 -55 306 -109z m2413 -647
l-3 -556 -895 -148 c-492 -81 -903 -148 -912 -148 -17 -1 -18 36 -18 649 0
358 1 650 3 651 5 1 1754 107 1790 108 l37 1 -2 -557z"/>
<path d="M11359 5500 c-90 -94 -165 -174 -166 -178 -1 -4 31 -28 70 -54 84
-54 230 -183 374 -329 l101 -104 -398 -405 -399 -405 -173 175 c-145 147 -261
282 -308 359 -9 13 -38 -12 -180 -158 l-170 -174 67 -45 c119 -79 219 -170
634 -580 392 -387 478 -479 552 -588 l34 -52 173 173 172 172 -44 26 c-77 45
-190 141 -356 303 l-163 159 400 405 400 405 178 -180 c155 -156 289 -313 306
-357 3 -8 69 50 176 157 94 93 171 173 171 176 0 4 -24 22 -52 40 -109 70
-206 158 -589 533 -408 401 -509 506 -586 616 -26 36 -50 69 -53 73 -4 5 -81
-69 -171 -163z"/>
<path d="M3438 5617 c-57 -87 -214 -247 -583 -588 -419 -388 -524 -480 -633
-550 l-74 -47 162 -173 c89 -96 165 -175 168 -176 4 -2 20 18 36 45 30 49 432
455 445 450 22 -8 677 -723 727 -793 l22 -29 38 34 c22 18 81 72 132 120 l94
87 -63 59 c-86 82 -699 740 -699 751 0 10 298 288 309 288 8 0 663 -704 758
-815 56 -65 111 -142 148 -205 9 -14 27 4 119 125 59 78 110 140 112 138 7 -8
-39 -165 -80 -271 -60 -155 -448 -1023 -503 -1127 -25 -47 -68 -118 -95 -159
-27 -40 -48 -74 -46 -75 10 -7 416 -185 427 -188 9 -2 17 16 26 57 7 33 25 96
40 140 30 87 171 414 186 429 11 12 84 -11 243 -75 152 -62 213 -99 291 -175
108 -106 139 -197 154 -461 14 -240 40 -315 145 -410 105 -97 273 -160 391
-148 112 12 108 8 191 215 98 243 94 229 48 192 -128 -100 -317 -47 -374 105
-11 30 -29 95 -40 146 -26 120 -54 188 -107 264 -45 65 -129 132 -215 174 -47
23 -61 39 -34 39 7 0 51 -17 97 -39 340 -157 633 -143 803 38 160 172 141 415
-48 606 -131 133 -184 161 -948 501 -296 131 -539 244 -540 251 -3 12 -1189
1293 -1198 1293 -3 0 -17 -19 -32 -43z m1867 -1922 c384 -171 418 -189 483
-248 81 -75 113 -158 93 -235 -25 -90 -101 -141 -211 -142 -116 0 -170 20
-753 283 -142 64 -177 83 -172 96 3 9 45 105 93 214 65 147 91 197 102 193 8
-2 173 -74 365 -161z"/>
<path d="M9875 4083 c-318 -41 -584 -118 -820 -235 -458 -229 -652 -535 -515
-813 56 -115 145 -185 281 -220 51 -14 94 -16 209 -12 163 5 307 30 585 102
341 89 476 105 561 66 136 -62 100 -211 -80 -334 -166 -113 -518 -238 -791
-282 -111 -18 -379 -22 -463 -7 -29 5 -51 6 -50 2 2 -3 32 -88 67 -188 l65
-182 72 0 c135 0 326 31 564 90 597 150 989 408 1082 714 50 166 -13 358 -151
457 -89 64 -170 84 -331 83 -155 -2 -252 -19 -630 -114 -283 -71 -339 -81
-435 -81 -86 0 -131 16 -168 60 -31 37 -36 95 -13 139 20 37 100 112 161 150
82 51 251 127 380 171 206 70 440 108 612 99 51 -3 93 -4 93 -3 0 1 -31 78
-69 171 l-69 169 -58 1 c-33 1 -72 0 -89 -3z"/>
<path d="M6550 3546 c0 -3 8 -50 18 -104 15 -87 17 -164 15 -727 -2 -618 -9
-777 -38 -902 -7 -32 -12 -59 -11 -61 3 -3 1809 -21 1813 -18 4 3 74 388 71
391 -2 2 -33 -5 -68 -16 -93 -29 -236 -34 -843 -31 l-527 3 2 200 3 200 465
-1 c256 -1 501 -5 545 -9 44 -4 81 -7 82 -7 1 1 5 80 9 176 l7 175 -554 0
-554 0 0 195 0 195 602 -3 c532 -3 613 -6 690 -22 49 -9 89 -17 90 -16 4 3
-54 367 -59 371 -7 7 -1758 18 -1758 11z"/>
</g>
</svg>
